<svg width="26" height="26" viewBox="0 0 26 26" fill="none" xmlns="http://www.w3.org/2000/svg">
<g clip-path="url(#clip0_701_8139)">
<path d="M16.7831 15.1816H15.9401L15.6413 14.8935C16.687 13.6771 17.3166 12.0979 17.3166 10.38C17.3166 6.54942 14.2115 3.4444 10.3809 3.4444C6.55034 3.4444 3.44531 6.54942 3.44531 10.38C3.44531 14.2106 6.55034 17.3156 10.3809 17.3156C12.0988 17.3156 13.678 16.6861 14.8944 15.6404L15.1825 15.9392V16.7821L20.5176 22.1066L22.1075 20.5167L16.7831 15.1816ZM10.3809 15.1816C7.72406 15.1816 5.57935 13.0369 5.57935 10.38C5.57935 7.72315 7.72406 5.57844 10.3809 5.57844C13.0378 5.57844 15.1825 7.72315 15.1825 10.38C15.1825 13.0369 13.0378 15.1816 10.3809 15.1816Z" fill="white"/>
</g>
<defs>
<clipPath id="clip0_701_8139">
<path d="M0.244141 0.243347H22.8526C24.5095 0.243347 25.8526 1.58649 25.8526 3.24335V22.8518C25.8526 24.5087 24.5095 25.8518 22.8526 25.8518H0.244141V0.243347Z" fill="white"/>
</clipPath>
</defs>
</svg>
